<?xml version="1.0" encoding="UTF-8" standalone="no"?>
<!-- Created with Inkscape (http://www.inkscape.org/) -->

<svg
   xmlns:dc="http://purl.org/dc/elements/1.1/"
   xmlns:cc="http://creativecommons.org/ns#"
   xmlns:rdf="http://www.w3.org/1999/02/22-rdf-syntax-ns#"
   xmlns:svg="http://www.w3.org/2000/svg"
   xmlns="http://www.w3.org/2000/svg"
   xmlns:sodipodi="http://sodipodi.sourceforge.net/DTD/sodipodi-0.dtd"
   xmlns:inkscape="http://www.inkscape.org/namespaces/inkscape"
   width="10942"
   height="2291"
   viewBox="0 0 2895.0708 606.16043"
   version="1.1"
   id="svg4623"
   inkscape:version="0.92.1 r15371">
  <defs
     id="defs4617">
    <clipPath
       clipPathUnits="userSpaceOnUse"
       id="clipPath4501">
      <path
         d="M 0,60.233 H 266.744 V 0 H 0 Z"
         id="path4499"
         inkscape:connector-curvature="0" />
    </clipPath>
  </defs>
  <sodipodi:namedview
     id="base"
     pagecolor="#ffffff"
     bordercolor="#666666"
     borderopacity="1.0"
     inkscape:pageopacity="0.0"
     inkscape:pageshadow="2"
     inkscape:zoom="0.12910957"
     inkscape:cx="5471.8689"
     inkscape:cy="1144.2196"
     inkscape:document-units="mm"
     inkscape:current-layer="layer1"
     showgrid="false"
     units="px"
     inkscape:window-width="1920"
     inkscape:window-height="1058"
     inkscape:window-x="1912"
     inkscape:window-y="-8"
     inkscape:window-maximized="1" />
  <metadata
     id="metadata4620">
    <rdf:RDF>
      <cc:Work
         rdf:about="">
        <dc:format>image/svg+xml</dc:format>
        <dc:type
           rdf:resource="http://purl.org/dc/dcmitype/StillImage" />
        <dc:title></dc:title>
      </cc:Work>
    </rdf:RDF>
  </metadata>
  <g
     inkscape:label="Layer 1"
     inkscape:groupmode="layer"
     id="layer1"
     transform="translate(0,309.16043)">
    <g
       id="g4495"
       transform="matrix(11.25617,0,0,-11.25617,-47.374304,323.36027)"
       style="stroke-width:0.03134084;fill:#42759e;fill-opacity:1"
       inkscape:export-xdpi="95.978424"
       inkscape:export-ydpi="95.978424">
      <g
         id="g4497"
         clip-path="url(#clipPath4501)"
         style="stroke-width:0.03134084;fill:#42759e;fill-opacity:1">
        <g
           id="g4503"
           transform="translate(80.3295,31.3975)"
           style="stroke-width:0.03134084;fill:#42759e;fill-opacity:1">
          <path
             d="m 0,0 c 0,-2.384 -0.858,-4.263 -2.574,-5.637 -1.716,-1.372 -4.104,-2.059 -7.163,-2.059 -2.818,0 -5.31,0.529 -7.478,1.59 v 5.203 c 1.781,-0.796 3.291,-1.355 4.525,-1.68 1.233,-0.325 2.362,-0.488 3.387,-0.488 1.228,0 2.17,0.235 2.827,0.704 0.656,0.47 0.984,1.169 0.984,2.095 0,0.519 -0.143,0.979 -0.433,1.383 -0.289,0.403 -0.714,0.791 -1.273,1.166 -0.56,0.373 -1.702,0.968 -3.424,1.787 -1.614,0.758 -2.824,1.487 -3.63,2.187 -0.808,0.698 -1.452,1.51 -1.934,2.438 -0.481,0.928 -0.723,2.011 -0.723,3.251 0,2.336 0.792,4.173 2.376,5.51 1.584,1.337 3.772,2.005 6.566,2.005 1.374,0 2.683,-0.162 3.93,-0.487 1.246,-0.325 2.55,-0.783 3.911,-1.373 l -1.807,-4.354 c -1.408,0.578 -2.573,0.983 -3.495,1.211 -0.922,0.229 -1.828,0.342 -2.719,0.342 -1.06,0 -1.873,-0.246 -2.438,-0.74 -0.567,-0.494 -0.85,-1.137 -0.85,-1.933 0,-0.495 0.114,-0.923 0.343,-1.292 0.229,-0.367 0.593,-0.721 1.093,-1.064 0.5,-0.344 1.684,-0.962 3.55,-1.853 2.469,-1.18 4.161,-2.364 5.076,-3.55 C -0.458,3.177 0,1.722 0,0"
             style="fill:#42759e;fill-opacity:1;fill-rule:nonzero;stroke:none;stroke-width:0.03134084"
             id="path4505"
             inkscape:connector-curvature="0" />
        </g>
        <g
           id="g4507"
           transform="translate(96.0311,24.0635)"
           style="stroke-width:0.03134084;fill:#42759e;fill-opacity:1">
          <path
             d="M 0,0 -0.741,2.583 H -1.03 C -1.62,1.644 -2.457,0.917 -3.541,0.405 c -1.084,-0.511 -2.318,-0.767 -3.703,-0.767 -2.373,0 -4.161,0.635 -5.366,1.905 -1.203,1.271 -1.806,3.099 -1.806,5.483 v 13.17 h 5.51 V 8.4 c 0,-1.458 0.259,-2.55 0.777,-3.279 0.518,-0.729 1.342,-1.093 2.475,-1.093 1.542,0 2.655,0.514 3.342,1.545 0.686,1.029 1.029,2.737 1.029,5.121 v 9.502 h 5.51 L 4.227,0 Z"
             style="fill:#42759e;fill-opacity:1;fill-rule:nonzero;stroke:none;stroke-width:0.03134084"
             id="path4509"
             inkscape:connector-curvature="0" />
        </g>
        <g
           id="g4511"
           transform="translate(113.2855,40.2315)"
           style="stroke-width:0.03134084;fill:#42759e;fill-opacity:1">
          <path
             d="m 0,0 c -1.361,0 -2.354,-0.42 -2.98,-1.256 -0.626,-0.838 -0.952,-2.219 -0.977,-4.146 v -0.596 c 0,-2.168 0.323,-3.722 0.967,-4.661 0.645,-0.938 1.665,-1.409 3.063,-1.409 2.468,0 3.703,2.036 3.703,6.106 0,1.988 -0.304,3.477 -0.913,4.471 C 2.255,-0.498 1.301,0 0,0 m 1.625,-16.53 c -2.371,0 -4.232,0.861 -5.582,2.583 h -0.289 c 0.193,-1.686 0.289,-2.661 0.289,-2.925 v -8.185 H -9.466 V 4.028 h 4.48 l 0.777,-2.619 h 0.252 c 1.289,1.999 3.198,2.998 5.728,2.998 2.384,0 4.25,-0.921 5.6,-2.763 1.349,-1.843 2.024,-4.403 2.024,-7.677 0,-2.157 -0.318,-4.03 -0.95,-5.619 -0.631,-1.59 -1.532,-2.8 -2.7,-3.632 -1.168,-0.831 -2.541,-1.246 -4.12,-1.246"
             style="fill:#42759e;fill-opacity:1;fill-rule:nonzero;stroke:none;stroke-width:0.03134084"
             id="path4513"
             inkscape:connector-curvature="0" />
        </g>
        <g
           id="g4515"
           transform="translate(134.1156,40.7193)"
           style="stroke-width:0.03134084;fill:#42759e;fill-opacity:1">
          <path
             d="M 0,0 C -1.169,0 -2.084,-0.372 -2.747,-1.111 -3.409,-1.853 -3.788,-2.903 -3.884,-4.263 H 3.848 C 3.823,-2.903 3.469,-1.853 2.781,-1.111 2.095,-0.372 1.169,0 0,0 m 0.776,-17.018 c -3.252,0 -5.793,0.897 -7.622,2.692 -1.831,1.795 -2.746,4.336 -2.746,7.624 0,3.384 0.845,5.999 2.537,7.849 1.693,1.848 4.032,2.772 7.019,2.772 2.853,0 5.076,-0.812 6.666,-2.438 1.59,-1.626 2.384,-3.873 2.384,-6.739 V -7.931 H -4.01 c 0.059,-1.565 0.524,-2.788 1.391,-3.668 0.867,-0.88 2.083,-1.318 3.649,-1.318 1.215,0 2.366,0.126 3.45,0.379 1.083,0.252 2.216,0.657 3.396,1.211 v -4.264 c -0.963,-0.481 -1.994,-0.84 -3.09,-1.074 -1.096,-0.235 -2.432,-0.353 -4.01,-0.353"
             style="fill:#42759e;fill-opacity:1;fill-rule:nonzero;stroke:none;stroke-width:0.03134084"
             id="path4517"
             inkscape:connector-curvature="0" />
        </g>
        <g
           id="g4519"
           transform="translate(157.4027,44.6387)"
           style="stroke-width:0.03134084;fill:#42759e;fill-opacity:1">
          <path
             d="M 0,0 C 0.748,0 1.368,-0.054 1.86,-0.163 L 1.445,-5.329 c -0.446,0.121 -0.988,0.18 -1.625,0.18 -1.757,0 -3.129,-0.451 -4.109,-1.355 -0.982,-0.903 -1.474,-2.166 -1.474,-3.792 v -10.279 h -5.509 V -0.379 H -7.1 l 0.814,-3.396 h 0.27 c 0.626,1.131 1.473,2.044 2.539,2.737 C -2.412,-0.346 -1.252,0 0,0"
             style="fill:#42759e;fill-opacity:1;fill-rule:nonzero;stroke:none;stroke-width:0.03134084"
             id="path4521"
             inkscape:connector-curvature="0" />
        </g>
        <g
           id="g4523"
           transform="translate(173.8431,46.1915)"
           style="stroke-width:0.03134084;fill:#42759e;fill-opacity:1">
          <path
             d="m 0,0 c -2.107,0 -3.739,-0.791 -4.896,-2.375 -1.155,-1.583 -1.734,-3.791 -1.734,-6.621 0,-5.888 2.21,-8.833 6.63,-8.833 1.855,0 4.1,0.463 6.738,1.391 v -4.697 c -2.168,-0.903 -4.589,-1.355 -7.262,-1.355 -3.842,0 -6.781,1.165 -8.815,3.495 -2.036,2.331 -3.055,5.676 -3.055,10.036 0,2.746 0.501,5.151 1.5,7.217 0.999,2.065 2.436,3.649 4.309,4.751 1.872,1.102 4.068,1.652 6.585,1.652 2.565,0 5.143,-0.619 7.731,-1.86 L 5.924,-1.751 C 4.937,-1.282 3.944,-0.872 2.944,-0.524 1.945,-0.174 0.963,0 0,0"
             style="fill:#42759e;fill-opacity:1;fill-rule:nonzero;stroke:none;stroke-width:0.03134084"
             id="path4525"
             inkscape:connector-curvature="0" />
        </g>
        <g
           id="g4527"
           transform="translate(194.0062,33.421)"
           style="stroke-width:0.03134084;fill:#42759e;fill-opacity:1">
          <path
             d="m 0,0 -2.132,-0.073 c -1.602,-0.048 -2.795,-0.337 -3.576,-0.867 -0.783,-0.53 -1.175,-1.337 -1.175,-2.42 0,-1.554 0.891,-2.331 2.675,-2.331 1.275,0 2.297,0.368 3.062,1.102 C -0.382,-3.854 0,-2.878 0,-1.662 Z M 1.626,-9.357 0.56,-6.613 H 0.415 C -0.511,-7.78 -1.467,-8.59 -2.447,-9.042 -3.43,-9.493 -4.709,-9.72 -6.286,-9.72 c -1.94,0 -3.466,0.555 -4.58,1.663 -1.114,1.108 -1.671,2.684 -1.671,4.733 0,2.143 0.751,3.723 2.249,4.741 1.5,1.019 3.761,1.581 6.784,1.69 L 0,3.215 V 4.1 c 0,2.048 -1.049,3.071 -3.144,3.071 -1.613,0 -3.51,-0.488 -5.69,-1.463 l -1.824,3.721 c 2.323,1.217 4.902,1.825 7.732,1.825 2.71,0 4.786,-0.591 6.232,-1.771 C 4.751,8.304 5.474,6.509 5.474,4.1 V -9.357 Z"
             style="fill:#42759e;fill-opacity:1;fill-rule:nonzero;stroke:none;stroke-width:0.03134084"
             id="path4529"
             inkscape:connector-curvature="0" />
        </g>
        <g
           id="g4531"
           transform="translate(221.016,24.0635)"
           style="stroke-width:0.03134084;fill:#42759e;fill-opacity:1">
          <path
             d="m 0,0 h -5.509 v 11.796 c 0,1.456 -0.244,2.55 -0.732,3.278 -0.488,0.729 -1.256,1.094 -2.304,1.094 -1.409,0 -2.434,-0.518 -3.07,-1.554 -0.639,-1.035 -0.958,-2.74 -0.958,-5.112 V 0 h -5.509 v 20.196 h 4.208 l 0.741,-2.583 h 0.307 c 0.542,0.927 1.324,1.652 2.348,2.178 1.024,0.523 2.198,0.784 3.523,0.784 3.021,0 5.07,-0.988 6.143,-2.962 h 0.488 c 0.54,0.939 1.339,1.668 2.392,2.185 1.055,0.518 2.244,0.777 3.569,0.777 2.287,0 4.019,-0.587 5.193,-1.761 1.175,-1.174 1.762,-3.057 1.762,-5.646 V 0 H 7.063 v 11.796 c 0,1.456 -0.243,2.55 -0.731,3.278 -0.488,0.729 -1.256,1.094 -2.304,1.094 -1.348,0 -2.357,-0.482 -3.025,-1.446 C 0.334,13.759 0,12.229 0,10.135 Z"
             style="fill:#42759e;fill-opacity:1;fill-rule:nonzero;stroke:none;stroke-width:0.03134084"
             id="path4533"
             inkscape:connector-curvature="0" />
        </g>
        <g
           id="g4535"
           transform="translate(247.2474,40.2315)"
           style="stroke-width:0.03134084;fill:#42759e;fill-opacity:1">
          <path
             d="m 0,0 c -1.361,0 -2.356,-0.42 -2.98,-1.256 -0.628,-0.838 -0.952,-2.219 -0.977,-4.146 v -0.596 c 0,-2.168 0.321,-3.722 0.967,-4.661 0.644,-0.938 1.664,-1.409 3.061,-1.409 2.47,0 3.704,2.036 3.704,6.106 0,1.988 -0.304,3.477 -0.913,4.471 C 2.255,-0.498 1.301,0 0,0 m 1.626,-16.53 c -2.374,0 -4.234,0.861 -5.583,2.583 h -0.289 c 0.192,-1.686 0.289,-2.661 0.289,-2.925 v -8.185 h -5.51 V 4.028 h 4.482 l 0.776,-2.619 h 0.252 c 1.288,1.999 3.197,2.998 5.728,2.998 2.383,0 4.25,-0.921 5.599,-2.763 1.349,-1.843 2.024,-4.403 2.024,-7.677 0,-2.157 -0.318,-4.03 -0.949,-5.619 -0.633,-1.59 -1.532,-2.8 -2.701,-3.632 -1.169,-0.831 -2.541,-1.246 -4.118,-1.246"
             style="fill:#42759e;fill-opacity:1;fill-rule:nonzero;stroke:none;stroke-width:0.03134084"
             id="path4537"
             inkscape:connector-curvature="0" />
        </g>
        <g
           id="g4539"
           transform="translate(40.0814,21.9732)"
           style="stroke-width:0.03134084;fill:#42759e;fill-opacity:1">
          <path
             d="M 0,0 C -1.374,0 -2.648,0.437 -3.694,1.176 -4.244,0.812 -4.848,0.525 -5.488,0.325 L -3.064,-2.1 c -2.471,-1.442 -5.715,-1.091 -7.848,1.043 L -11.79,-0.179 -16.701,4.885 -18,6.221 -18.956,5.293 -18.484,4.809 -13.818,0 h -6.848 c -3.857,0 -6.994,3.138 -6.994,6.994 v 14.075 c 0,3.894 3.137,7.061 6.994,7.061 h 13.06 c 0.331,0 0.634,-0.024 0.911,-0.059 v -4.948 -3.712 h 1.33 v 1.818 6.528 c 2.918,-0.867 4.82,-3.492 4.82,-6.688 V 6.994 c 0,-0.4 -0.041,-0.79 -0.106,-1.171 C 0.09,4.947 1.181,4.381 2.415,4.381 h 11.081 c 1.313,0 2.522,-0.44 3.505,-1.171 0.006,0.141 0.021,0.279 0.021,0.42 v 20.988 c 0,5.279 -4.296,9.578 -9.578,9.578 H -26.39 c -5.231,0 -9.488,-4.299 -9.488,-9.578 V -5.858 H -20.279 -9.63 5.386 7.444 c 3.984,0 7.405,2.423 8.847,5.858 z"
             style="fill:#42759e;fill-opacity:1;fill-rule:nonzero;stroke:none;stroke-width:0.03134084"
             id="path4541"
             inkscape:connector-curvature="0" />
        </g>
        <g
           id="g4543"
           transform="translate(23.7733,29.7144)"
           style="stroke-width:0.03134084;fill:#42759e;fill-opacity:1">
          <path
             d="m 0,0 c 0.939,0.94 2.462,0.94 3.402,0 l 2.934,-2.933 h 2.366 c 0.482,0 0.926,0.151 1.293,0.401 0.578,0.396 0.959,1.046 0.959,1.784 v 14.076 c 0,0.053 -0.006,0.108 -0.011,0.16 V 11.67 h -1.33 v 3.711 c -0.279,0.126 -0.586,0.201 -0.911,0.201 h -13.06 c -1.205,0 -2.185,-1.012 -2.185,-2.254 V -0.748 c 0,-1.204 0.98,-2.185 2.185,-2.185 h 2.182 l -0.472,0.485 0.956,0.928 1.299,-1.336 C -0.898,-1.943 -0.775,-0.774 0,0"
             style="fill:#42759e;fill-opacity:1;fill-rule:nonzero;stroke:none;stroke-width:0.03134084"
             id="path4545"
             inkscape:connector-curvature="0" />
        </g>
        <g
           id="g4547"
           transform="translate(258.9965,47.463)"
           style="stroke-width:0.03134084;fill:#42759e;fill-opacity:1">
          <path
             d="m 0,0 h 0.229 c 0.268,0 0.484,0.089 0.484,0.305 0,0.191 -0.14,0.319 -0.446,0.319 C 0.14,0.624 0.051,0.611 0,0.598 Z m -0.013,-1.172 h -0.483 v 2.089 c 0.191,0.024 0.458,0.063 0.802,0.063 0.395,0 0.573,-0.063 0.713,-0.166 0.127,-0.089 0.215,-0.241 0.215,-0.445 0,-0.255 -0.189,-0.42 -0.432,-0.496 v -0.026 c 0.204,-0.064 0.305,-0.229 0.369,-0.51 0.063,-0.318 0.115,-0.433 0.153,-0.509 H 0.815 c -0.064,0.076 -0.102,0.255 -0.166,0.509 -0.038,0.217 -0.166,0.319 -0.432,0.319 h -0.23 z m 0.319,2.751 c -0.905,0 -1.605,-0.752 -1.605,-1.669 0,-0.929 0.7,-1.667 1.63,-1.667 0.903,-0.013 1.591,0.738 1.591,1.654 0,0.93 -0.688,1.682 -1.604,1.682 z m 0.025,0.42 c 1.185,0 2.126,-0.917 2.126,-2.089 0,-1.171 -0.941,-2.101 -2.139,-2.101 -1.197,0 -2.152,0.93 -2.152,2.101 0,1.172 0.955,2.089 2.152,2.089 z"
             style="fill:#42759e;fill-opacity:1;fill-rule:nonzero;stroke:none;stroke-width:0.03134084"
             id="path4549"
             inkscape:connector-curvature="0" />
        </g>
        <g
           id="g4551"
           transform="translate(115.4535,7.9024)"
           style="stroke-width:0.03134084;fill:#42759e;fill-opacity:1">
          <path
             d="m 0,0 v -2.05 h 1.834 c 0.715,0 1.167,0.015 1.359,0.047 0.295,0.042 0.535,0.144 0.72,0.306 0.185,0.162 0.278,0.379 0.278,0.651 0,0.23 -0.071,0.425 -0.214,0.586 -0.143,0.16 -0.35,0.277 -0.62,0.351 C 3.087,-0.036 2.501,0 1.6,0 Z M 0,3.05 V 1.277 h 1.299 c 0.772,0 1.252,0.008 1.439,0.026 C 3.077,1.334 3.344,1.426 3.539,1.578 3.732,1.729 3.83,1.929 3.83,2.176 3.83,2.414 3.746,2.606 3.579,2.755 3.411,2.903 3.162,2.992 2.832,3.024 2.635,3.041 2.071,3.05 1.138,3.05 Z M -1.982,4.326 H 1.941 C 2.718,4.326 3.297,4.301 3.679,4.25 4.061,4.2 4.402,4.095 4.704,3.935 5.005,3.774 5.255,3.56 5.457,3.293 5.657,3.027 5.758,2.728 5.758,2.396 5.758,2.037 5.634,1.707 5.386,1.407 5.139,1.107 4.803,0.883 4.378,0.733 4.977,0.597 5.437,0.365 5.758,0.037 6.079,-0.291 6.24,-0.676 6.24,-1.119 6.24,-1.468 6.136,-1.807 5.929,-2.136 5.721,-2.466 5.437,-2.729 5.078,-2.926 4.719,-3.124 4.276,-3.245 3.75,-3.29 3.419,-3.318 2.622,-3.335 1.359,-3.342 h -3.341 z"
             style="fill:#42759e;fill-opacity:1;fill-rule:nonzero;stroke:none;stroke-width:0.03134084"
             id="path4553"
             inkscape:connector-curvature="0" />
        </g>
        <g
           id="g4555"
           transform="translate(122.4628,10.1158)"
           style="stroke-width:0.03134084;fill:#42759e;fill-opacity:1">
          <path
             d="M 0,0 H 2.002 L 3.703,-3.945 5.363,0 H 7.312 L 4.801,-5.347 4.352,-6.314 C 4.187,-6.639 4.03,-6.886 3.88,-7.057 3.73,-7.228 3.559,-7.366 3.365,-7.473 3.17,-7.579 2.932,-7.662 2.648,-7.722 2.365,-7.781 2.045,-7.81 1.687,-7.81 c -0.361,0 -0.716,0.029 -1.064,0.088 L 0.456,-6.57 c 0.294,-0.046 0.56,-0.069 0.796,-0.069 0.438,0 0.761,0.101 0.971,0.301 0.21,0.201 0.37,0.456 0.482,0.766 z"
             style="fill:#42759e;fill-opacity:1;fill-rule:nonzero;stroke:none;stroke-width:0.03134084"
             id="path4557"
             inkscape:connector-curvature="0" />
        </g>
        <g
           id="g4559"
           transform="translate(141.1088,6.4068)"
           style="stroke-width:0.03134084;fill:#42759e;fill-opacity:1">
          <path
             d="m 0,0 c 0.255,0.233 0.446,0.516 0.573,0.847 0.127,0.331 0.191,0.712 0.191,1.141 0,0.886 -0.25,1.547 -0.75,1.985 -0.5,0.438 -1.154,0.656 -1.962,0.656 -0.808,0 -1.462,-0.219 -1.965,-0.658 -0.502,-0.44 -0.753,-1.101 -0.753,-1.983 0,-0.897 0.251,-1.567 0.753,-2.011 0.503,-0.445 1.137,-0.667 1.905,-0.667 0.285,0 0.556,0.036 0.81,0.109 -0.402,0.206 -0.81,0.366 -1.225,0.482 l 0.556,0.883 C -1.216,0.61 -0.594,0.349 0,0 M 1.594,-0.874 C 2.08,-1.146 2.609,-1.362 3.181,-1.522 L 2.45,-2.616 c -0.299,0.07 -0.591,0.166 -0.876,0.288 -0.062,0.024 -0.502,0.251 -1.319,0.68 -0.643,-0.22 -1.355,-0.33 -2.136,-0.33 -1.509,0 -2.69,0.348 -3.545,1.041 -0.855,0.694 -1.282,1.669 -1.282,2.925 0,1.252 0.429,2.225 1.285,2.922 0.858,0.695 2.02,1.043 3.488,1.043 1.456,0 2.61,-0.348 3.462,-1.043 C 2.379,4.213 2.806,3.24 2.806,1.988 2.806,1.325 2.688,0.743 2.45,0.24 2.272,-0.143 1.987,-0.515 1.594,-0.874"
             style="fill:#42759e;fill-opacity:1;fill-rule:nonzero;stroke:none;stroke-width:0.03134084"
             id="path4561"
             inkscape:connector-curvature="0" />
        </g>
        <g
           id="g4563"
           transform="translate(150.1351,4.5601)"
           style="stroke-width:0.03134084;fill:#42759e;fill-opacity:1">
          <path
             d="M 0,0 V 0.832 C -0.26,0.536 -0.6,0.301 -1.021,0.131 -1.443,-0.04 -1.888,-0.125 -2.357,-0.125 c -0.478,0 -0.906,0.082 -1.286,0.246 -0.379,0.163 -0.654,0.394 -0.823,0.69 -0.17,0.296 -0.255,0.706 -0.255,1.23 V 5.556 H -2.84 V 3.003 c 0,-0.781 0.035,-1.26 0.105,-1.437 0.069,-0.175 0.195,-0.315 0.378,-0.418 0.183,-0.103 0.415,-0.154 0.696,-0.154 0.321,0 0.609,0.068 0.863,0.207 0.255,0.137 0.43,0.308 0.523,0.512 0.093,0.204 0.141,0.704 0.141,1.499 V 5.556 H 1.747 V 0 Z"
             style="fill:#42759e;fill-opacity:1;fill-rule:nonzero;stroke:none;stroke-width:0.03134084"
             id="path4565"
             inkscape:connector-curvature="0" />
        </g>
        <g
           id="g4567"
           transform="translate(157.7523,7.2281)"
           style="stroke-width:0.03134084;fill:#42759e;fill-opacity:1">
          <path
             d="M 0,0 C -0.24,-0.063 -0.622,-0.138 -1.145,-0.225 -1.666,-0.312 -2.008,-0.397 -2.168,-0.481 -2.414,-0.617 -2.536,-0.79 -2.536,-1 c 0,-0.205 0.098,-0.383 0.294,-0.533 0.196,-0.15 0.446,-0.225 0.75,-0.225 0.339,0 0.662,0.087 0.971,0.261 0.227,0.133 0.376,0.295 0.448,0.487 C -0.024,-0.884 0,-0.646 0,-0.293 Z m -2.517,1.192 -1.707,0.241 c 0.192,0.537 0.523,0.935 0.991,1.193 0.468,0.258 1.165,0.387 2.088,0.387 0.839,0 1.464,-0.077 1.875,-0.233 C 1.141,2.625 1.43,2.428 1.598,2.189 1.765,1.95 1.849,1.512 1.849,0.874 l -0.02,-1.716 c 0,-0.489 0.03,-0.849 0.09,-1.081 0.06,-0.231 0.173,-0.48 0.338,-0.745 H 0.396 c -0.049,0.098 -0.11,0.243 -0.181,0.435 -0.031,0.087 -0.054,0.144 -0.067,0.171 -0.321,-0.243 -0.665,-0.427 -1.032,-0.548 -0.365,-0.122 -0.756,-0.183 -1.171,-0.183 -0.731,0 -1.308,0.154 -1.731,0.465 -0.421,0.31 -0.632,0.703 -0.632,1.177 0,0.314 0.096,0.593 0.288,0.839 0.192,0.247 0.461,0.435 0.807,0.565 0.345,0.132 0.844,0.246 1.496,0.343 0.879,0.129 1.488,0.249 1.827,0.362 v 0.146 c 0,0.282 -0.089,0.483 -0.268,0.604 -0.177,0.12 -0.514,0.18 -1.01,0.18 -0.334,0 -0.596,-0.052 -0.784,-0.154 C -2.248,1.631 -2.4,1.451 -2.517,1.192"
             style="fill:#42759e;fill-opacity:1;fill-rule:nonzero;stroke:none;stroke-width:0.03134084"
             id="path4569"
             inkscape:connector-curvature="0" />
        </g>
        <g
           id="g4571"
           transform="translate(167.9232,4.5601)"
           style="stroke-width:0.03134084;fill:#42759e;fill-opacity:1">
          <path
             d="m 0,0 h -1.881 v 2.835 c 0,0.6 -0.04,0.988 -0.121,1.164 -0.08,0.176 -0.21,0.313 -0.392,0.411 -0.179,0.097 -0.397,0.146 -0.652,0.146 -0.326,0 -0.618,-0.069 -0.877,-0.209 C -4.182,4.208 -4.359,4.023 -4.455,3.793 -4.551,3.563 -4.599,3.137 -4.599,2.516 V 0 H -6.48 v 5.556 h 1.747 V 4.739 c 0.62,0.628 1.401,0.942 2.343,0.942 0.415,0 0.794,-0.058 1.138,-0.175 C -0.908,5.389 -0.648,5.24 -0.472,5.059 -0.296,4.877 -0.173,4.671 -0.104,4.441 -0.034,4.211 0,3.881 0,3.453 Z"
             style="fill:#42759e;fill-opacity:1;fill-rule:nonzero;stroke:none;stroke-width:0.03134084"
             id="path4573"
             inkscape:connector-curvature="0" />
        </g>
        <g
           id="g4575"
           transform="translate(173.0922,10.1158)"
           style="stroke-width:0.03134084;fill:#42759e;fill-opacity:1">
          <path
             d="m 0,0 v -1.172 h -1.285 v -2.239 c 0,-0.454 0.013,-0.717 0.037,-0.792 0.024,-0.075 0.08,-0.137 0.166,-0.186 0.088,-0.049 0.193,-0.073 0.319,-0.073 0.174,0 0.426,0.046 0.756,0.141 l 0.161,-1.14 c -0.437,-0.147 -0.932,-0.22 -1.486,-0.22 -0.34,0 -0.646,0.044 -0.918,0.133 -0.271,0.089 -0.472,0.204 -0.599,0.345 -0.127,0.141 -0.214,0.333 -0.264,0.573 -0.04,0.171 -0.061,0.516 -0.061,1.036 v 2.422 H -4.037 V 0 h 0.863 v 1.104 l 1.889,0.857 V 0 Z"
             style="fill:#42759e;fill-opacity:1;fill-rule:nonzero;stroke:none;stroke-width:0.03134084"
             id="path4577"
             inkscape:connector-curvature="0" />
        </g>
        <g
           id="g4579"
           transform="translate(179.0785,4.5601)"
           style="stroke-width:0.03134084;fill:#42759e;fill-opacity:1">
          <path
             d="M 0,0 V 0.832 C -0.26,0.536 -0.6,0.301 -1.021,0.131 -1.443,-0.04 -1.889,-0.125 -2.357,-0.125 c -0.478,0 -0.906,0.082 -1.287,0.246 -0.378,0.163 -0.653,0.394 -0.823,0.69 -0.169,0.296 -0.254,0.706 -0.254,1.23 V 5.556 H -2.84 V 3.003 c 0,-0.781 0.035,-1.26 0.104,-1.437 0.07,-0.175 0.196,-0.315 0.379,-0.418 0.182,-0.103 0.415,-0.154 0.696,-0.154 0.321,0 0.609,0.068 0.863,0.207 0.255,0.137 0.43,0.308 0.523,0.512 0.093,0.204 0.14,0.704 0.14,1.499 V 5.556 H 1.747 V 0 Z"
             style="fill:#42759e;fill-opacity:1;fill-rule:nonzero;stroke:none;stroke-width:0.03134084"
             id="path4581"
             inkscape:connector-curvature="0" />
        </g>
        <g
           id="g4583"
           transform="translate(182.6332,10.1158)"
           style="stroke-width:0.03134084;fill:#42759e;fill-opacity:1">
          <path
             d="m 0,0 h 1.734 v -0.759 c 0.62,0.59 1.36,0.884 2.216,0.884 0.455,0 0.851,-0.073 1.186,-0.219 0.334,-0.147 0.608,-0.368 0.823,-0.665 0.312,0.297 0.649,0.518 1.011,0.665 0.361,0.146 0.748,0.219 1.158,0.219 0.522,0 0.964,-0.083 1.326,-0.248 0.361,-0.166 0.631,-0.409 0.81,-0.73 0.13,-0.237 0.194,-0.621 0.194,-1.15 V -5.556 H 8.577 v 3.176 c 0,0.551 -0.065,0.906 -0.194,1.067 C 8.208,-1.104 7.94,-1 7.579,-1 7.315,-1 7.067,-1.062 6.836,-1.187 6.604,-1.313 6.436,-1.498 6.334,-1.74 6.231,-1.982 6.18,-2.365 6.18,-2.888 V -5.556 H 4.299 v 3.045 c 0,0.54 -0.034,0.889 -0.101,1.046 C 4.131,-1.308 4.027,-1.191 3.886,-1.114 3.746,-1.038 3.555,-1 3.313,-1 3.023,-1 2.764,-1.061 2.531,-1.183 2.299,-1.305 2.132,-1.48 2.032,-1.71 1.932,-1.941 1.882,-2.323 1.882,-2.856 v -2.7 H 0 Z"
             style="fill:#42759e;fill-opacity:1;fill-rule:nonzero;stroke:none;stroke-width:0.03134084"
             id="path4585"
             inkscape:connector-curvature="0" />
        </g>
        <g
           id="g4587"
           transform="translate(198.8422,4.5601)"
           style="stroke-width:0.03134084;fill:#42759e;fill-opacity:1">
          <path
             d="M 0,0 V 7.606 H 1.981 V 1.292 H 6.909 V 0 Z"
             style="fill:#42759e;fill-opacity:1;fill-rule:nonzero;stroke:none;stroke-width:0.03134084"
             id="path4589"
             inkscape:connector-curvature="0" />
        </g>
        <g
           id="g4591"
           transform="translate(211.3754,7.814)"
           style="stroke-width:0.03134084;fill:#42759e;fill-opacity:1">
          <path
             d="M 0,0 C -0.014,0.425 -0.153,0.749 -0.422,0.97 -0.689,1.192 -1.015,1.302 -1.399,1.302 -1.81,1.302 -2.148,1.186 -2.417,0.952 -2.685,0.718 -2.816,0.401 -2.813,0 Z M -0.106,-1.485 1.768,-1.731 C 1.526,-2.269 1.146,-2.678 0.626,-2.958 0.105,-3.239 -0.545,-3.379 -1.325,-3.379 c -1.238,0 -2.153,0.316 -2.745,0.946 -0.47,0.506 -0.703,1.144 -0.703,1.915 0,0.921 0.307,1.642 0.923,2.163 0.617,0.521 1.396,0.782 2.337,0.782 1.058,0 1.892,-0.273 2.504,-0.819 C 1.603,1.062 1.896,0.227 1.868,-0.9 h -4.714 c 0.014,-0.436 0.165,-0.775 0.456,-1.017 0.29,-0.243 0.652,-0.364 1.085,-0.364 0.294,0 0.541,0.063 0.743,0.188 0.201,0.126 0.352,0.328 0.456,0.608"
             style="fill:#42759e;fill-opacity:1;fill-rule:nonzero;stroke:none;stroke-width:0.03134084"
             id="path4593"
             inkscape:connector-curvature="0" />
        </g>
        <g
           id="g4595"
           transform="translate(218.6986,7.2281)"
           style="stroke-width:0.03134084;fill:#42759e;fill-opacity:1">
          <path
             d="M 0,0 C -0.24,-0.063 -0.622,-0.138 -1.145,-0.225 -1.666,-0.312 -2.008,-0.397 -2.168,-0.481 -2.414,-0.617 -2.536,-0.79 -2.536,-1 c 0,-0.205 0.098,-0.383 0.294,-0.533 0.196,-0.15 0.446,-0.225 0.75,-0.225 0.339,0 0.663,0.087 0.971,0.261 0.227,0.133 0.376,0.295 0.448,0.487 C -0.024,-0.884 0,-0.646 0,-0.293 Z m -2.517,1.192 -1.707,0.241 c 0.192,0.537 0.523,0.935 0.991,1.193 0.468,0.258 1.165,0.387 2.088,0.387 0.839,0 1.464,-0.077 1.875,-0.233 C 1.141,2.625 1.43,2.428 1.598,2.189 1.765,1.95 1.849,1.512 1.849,0.874 l -0.02,-1.716 c 0,-0.489 0.03,-0.849 0.09,-1.081 0.06,-0.231 0.173,-0.48 0.338,-0.745 H 0.396 c -0.049,0.098 -0.11,0.243 -0.181,0.435 -0.031,0.087 -0.054,0.144 -0.067,0.171 -0.321,-0.243 -0.665,-0.427 -1.032,-0.548 -0.365,-0.122 -0.756,-0.183 -1.171,-0.183 -0.731,0 -1.308,0.154 -1.731,0.465 -0.421,0.31 -0.632,0.703 -0.632,1.177 0,0.314 0.096,0.593 0.288,0.839 0.192,0.247 0.461,0.435 0.807,0.565 0.345,0.132 0.844,0.246 1.496,0.343 0.879,0.129 1.488,0.249 1.827,0.362 v 0.146 c 0,0.282 -0.089,0.483 -0.268,0.604 -0.177,0.12 -0.514,0.18 -1.01,0.18 -0.334,0 -0.596,-0.052 -0.784,-0.154 C -2.248,1.631 -2.4,1.451 -2.517,1.192"
             style="fill:#42759e;fill-opacity:1;fill-rule:nonzero;stroke:none;stroke-width:0.03134084"
             id="path4597"
             inkscape:connector-curvature="0" />
        </g>
        <g
           id="g4599"
           transform="translate(224.2025,4.5601)"
           style="stroke-width:0.03134084;fill:#42759e;fill-opacity:1">
          <path
             d="m 0,0 h -1.881 v 5.556 h 1.748 v -0.79 c 0.299,0.373 0.568,0.619 0.807,0.737 0.238,0.119 0.509,0.178 0.812,0.178 0.43,0 0.842,-0.093 1.24,-0.277 L 2.144,4.122 C 1.826,4.282 1.532,4.363 1.26,4.363 0.996,4.363 0.772,4.306 0.59,4.193 0.407,4.079 0.263,3.875 0.158,3.578 0.054,3.282 0,2.661 0,1.716 Z"
             style="fill:#42759e;fill-opacity:1;fill-rule:nonzero;stroke:none;stroke-width:0.03134084"
             id="path4601"
             inkscape:connector-curvature="0" />
        </g>
        <g
           id="g4603"
           transform="translate(234.2054,4.5601)"
           style="stroke-width:0.03134084;fill:#42759e;fill-opacity:1">
          <path
             d="m 0,0 h -1.882 v 2.835 c 0,0.6 -0.04,0.988 -0.12,1.164 -0.08,0.176 -0.211,0.313 -0.392,0.411 -0.18,0.097 -0.398,0.146 -0.653,0.146 -0.326,0 -0.618,-0.069 -0.877,-0.209 C -4.183,4.208 -4.359,4.023 -4.456,3.793 -4.552,3.563 -4.6,3.137 -4.6,2.516 V 0 h -1.881 v 5.556 h 1.747 V 4.739 c 0.621,0.628 1.401,0.942 2.344,0.942 0.414,0 0.793,-0.058 1.137,-0.175 C -0.908,5.389 -0.648,5.24 -0.473,5.059 -0.296,4.877 -0.174,4.671 -0.104,4.441 -0.034,4.211 0,3.881 0,3.453 Z"
             style="fill:#42759e;fill-opacity:1;fill-rule:nonzero;stroke:none;stroke-width:0.03134084"
             id="path4605"
             inkscape:connector-curvature="0" />
        </g>
        <path
           d="m 236.113,10.116 h 1.882 V 4.56 h -1.882 z m 0,2.113 h 1.882 v -1.36 h -1.882 z"
           style="fill:#42759e;fill-opacity:1;fill-rule:nonzero;stroke:none;stroke-width:0.03134084"
           id="path4607"
           inkscape:connector-curvature="0" />
        <g
           id="g4609"
           transform="translate(246.391,4.5601)"
           style="stroke-width:0.03134084;fill:#42759e;fill-opacity:1">
          <path
             d="m 0,0 h -1.882 v 2.835 c 0,0.6 -0.04,0.988 -0.12,1.164 -0.08,0.176 -0.211,0.313 -0.392,0.411 -0.18,0.097 -0.398,0.146 -0.653,0.146 -0.326,0 -0.618,-0.069 -0.877,-0.209 C -4.183,4.208 -4.359,4.023 -4.456,3.793 -4.552,3.563 -4.6,3.137 -4.6,2.516 V 0 h -1.881 v 5.556 h 1.747 V 4.739 c 0.621,0.628 1.401,0.942 2.344,0.942 0.414,0 0.793,-0.058 1.137,-0.175 C -0.908,5.389 -0.648,5.24 -0.473,5.059 -0.296,4.877 -0.174,4.671 -0.104,4.441 -0.034,4.211 0,3.881 0,3.453 Z"
             style="fill:#42759e;fill-opacity:1;fill-rule:nonzero;stroke:none;stroke-width:0.03134084"
             id="path4611"
             inkscape:connector-curvature="0" />
        </g>
        <g
           id="g4613"
           transform="translate(249.806,7.4527)"
           style="stroke-width:0.03134084;fill:#42759e;fill-opacity:1">
          <path
             d="m 0,0 c 0,-0.589 0.146,-1.021 0.437,-1.294 0.293,-0.274 0.654,-0.411 1.083,-0.411 0.459,0 0.847,0.141 1.165,0.421 0.316,0.281 0.474,0.697 0.474,1.248 0,0.575 -0.151,1.002 -0.455,1.282 C 2.4,1.524 2.018,1.664 1.553,1.664 1.102,1.664 0.73,1.527 0.437,1.253 0.146,0.979 0,0.562 0,0 m -1.681,-3.259 2.149,-0.204 c 0.035,-0.195 0.119,-0.329 0.248,-0.402 0.179,-0.105 0.46,-0.157 0.844,-0.157 0.491,0 0.859,0.057 1.104,0.172 0.165,0.077 0.29,0.201 0.375,0.371 0.058,0.123 0.087,0.348 0.087,0.676 v 0.81 c -0.563,-0.6 -1.272,-0.9 -2.129,-0.9 -0.955,0 -1.712,0.316 -2.269,0.947 -0.438,0.499 -0.657,1.12 -0.657,1.863 0,0.931 0.287,1.642 0.861,2.134 0.573,0.491 1.286,0.738 2.138,0.738 0.879,0 1.606,-0.302 2.177,-0.906 v 0.78 h 1.761 v -4.985 c 0,-0.656 -0.07,-1.146 -0.208,-1.47 -0.138,-0.325 -0.333,-0.579 -0.583,-0.764 -0.25,-0.185 -0.583,-0.33 -1,-0.434 -0.418,-0.105 -0.946,-0.157 -1.584,-0.157 -1.205,0 -2.06,0.161 -2.565,0.483 -0.504,0.323 -0.755,0.732 -0.755,1.227 0,0.049 0.001,0.108 0.006,0.178"
             style="fill:#42759e;fill-opacity:1;fill-rule:nonzero;stroke:none;stroke-width:0.03134084"
             id="path4615"
             inkscape:connector-curvature="0" />
        </g>
      </g>
    </g>
    <rect
       style="fill:#42759e;fill-opacity:1;stroke-width:0.26458332"
       id="rect5403"
       width="30.294792"
       height="21.497396"
       x="181.76875"
       y="0.13748278" />
    <rect
       style="fill:#42759e;fill-opacity:1;stroke-width:0.26458332"
       id="rect5405"
       width="18.057852"
       height="43.3255"
       x="324.97449"
       y="-183.88023" />
  </g>
</svg>
